<svg xmlns="http://www.w3.org/2000/svg" xmlns:xlink="http://www.w3.org/1999/xlink" width="355" height="65" viewBox="0 0 355 65">
    <defs>
        <path id="a" d="M0 .173h111.251v63.68H.001z"/>
    </defs>
    <g fill="none" fillRule="evenodd">
        <g transform="translate(0 .413)">
            <mask id="b" fill="#fff">
                <use xlink:href="#a"/>
            </mask>
            <path fill="#EC1C2C" d="M111.251 16.069h-10.036l-5.893 5.893-5.893-5.893H79.392v10.207l5.809 5.807-5.809 5.808v10.066H89.57l5.752-5.753 5.752 5.753h10.177V37.891l-5.808-5.808 5.808-5.807V16.069zM34.194 32.013a7.952 7.952 0 1 0-15.904 0 7.952 7.952 0 0 0 15.904 0zm18.29 0c0 14.494-11.748 26.243-26.242 26.243C11.75 58.256 0 46.506 0 32.013 0 17.52 11.75 5.77 26.242 5.77c14.494 0 26.243 11.749 26.243 26.242zm5.444 31.84h15.115V.173H57.928v63.68z" mask="url(#b)"/>
        </g>
        <path fill="#EC1C2C" d="M150.604 38.804l3.868 4.705c-1.673 1.778-4.966 3.922-9.776 3.922-8.835 0-14.482-6.274-14.482-14.377 0-8.156 6.065-14.535 14.43-14.535 5.07 0 8.155 2.04 9.828 3.765l-4.025 4.862c-1.15-1.098-2.98-2.3-5.75-2.3-4.601 0-7.477 3.502-7.477 8.156 0 5.018 3.503 8.103 7.528 8.103 2.823 0 4.6-1.256 5.856-2.3M165.974 41.783c2.3 0 4.026-1.672 4.026-4.025 0-2.352-1.725-3.973-4.078-3.973-2.405 0-4.025 1.726-4.025 3.973 0 2.353 1.672 4.025 4.077 4.025m-1.046-13.173c2.51 0 4.235.68 4.968 1.15v-1.412c0-2.405-1.047-4.13-3.66-4.13-2.614 0-3.398 1.673-3.398 3.241h-6.535c.156-5.28 3.346-8.782 9.932-8.782 8.052 0 10.561 4.444 10.561 10.665V46.96h-5.855v-1.778c-.784.836-2.666 2.144-5.908 2.144-5.594 0-9.723-3.712-9.723-9.515 0-5.228 3.816-9.201 9.618-9.201M189.343 29.028c1.255.365 2.405.575 3.817.993 4.496 1.36 6.69 3.556 6.69 8.626 0 5.699-4.704 8.679-10.193 8.679-7.738 0-10.142-4.549-9.985-9.41h6.691c0 1.986.68 3.764 3.399 3.764 1.829 0 3.293-.89 3.293-2.51 0-1.62-.837-2.353-2.771-2.875-1.515-.418-2.718-.68-4.234-1.255-3.87-1.412-5.803-4.026-5.803-8.26 0-4.705 3.973-8.156 9.567-8.156 5.908 0 9.41 2.98 9.462 8.835h-6.43c-.052-2.143-1.046-3.398-3.19-3.398-1.672 0-2.77.942-2.77 2.353 0 1.36.785 2.143 2.457 2.614M217.417 29.341c0-2.718-1.202-4.443-3.764-4.443-2.51 0-3.868 1.777-3.868 4.443V46.96h-7.005V8.743h7.005v12.338c.732-.836 2.456-2.404 5.908-2.404 6.534 0 8.73 4.444 8.73 9.828V46.96h-7.006V29.34"/>
        <path fill="#003340" d="M249.935 46.96h-7.006V29.342c0-2.667-1.254-4.444-3.711-4.444-2.51 0-3.816 1.777-3.816 4.548V46.96h-7.006V18.99h7.006v2.092c.731-.89 2.457-2.405 6.011-2.405 3.294 0 5.386 1.254 6.64 3.032 1.255-1.465 3.346-3.032 7.005-3.032 6.901 0 9.41 4.444 9.41 9.828V46.96h-7.004V29.342c0-2.72-1.255-4.444-3.765-4.444-2.51 0-3.764 1.934-3.764 4.444V46.96M271.946 56.109l3.764-10.247-10.665-26.872h7.737l6.536 17.357 6.325-17.357h7.214L278.742 56.11z"/>
        <path fill="#EC1C2C" d="M312.36 38.804l3.868 4.705c-1.673 1.778-4.967 3.922-9.777 3.922-8.834 0-14.481-6.274-14.481-14.377 0-8.156 6.065-14.535 14.428-14.535 5.072 0 8.157 2.04 9.83 3.765l-4.026 4.862c-1.15-1.098-2.98-2.3-5.75-2.3-4.601 0-7.478 3.502-7.478 8.156 0 5.018 3.504 8.103 7.53 8.103 2.823 0 4.6-1.256 5.855-2.3M327.73 41.783c2.3 0 4.025-1.672 4.025-4.025 0-2.352-1.725-3.973-4.078-3.973-2.404 0-4.025 1.726-4.025 3.973 0 2.353 1.673 4.025 4.077 4.025m-1.045-13.173c2.509 0 4.235.68 4.966 1.15v-1.412c0-2.405-1.046-4.13-3.66-4.13s-3.397 1.673-3.397 3.241h-6.536c.157-5.28 3.347-8.782 9.933-8.782 8.052 0 10.561 4.444 10.561 10.665V46.96h-5.855v-1.778c-.784.836-2.666 2.144-5.907 2.144-5.594 0-9.725-3.712-9.725-9.515 0-5.228 3.818-9.201 9.62-9.201M354.967 26.205h-1.777c-2.719 0-3.66 1.307-3.66 3.711V46.96h-7.005V18.99h7.006v2.248c.993-1.412 2.56-2.352 5.436-2.352v7.319"/>
    </g>
</svg>
