<svg width="1153" height="315" viewBox="0 0 1153 315" fill="none" xmlns="http://www.w3.org/2000/svg">
<circle cx="157.5" cy="157.5" r="157.5" fill="#2185D0"/>
<path d="M156.24 314.16L57.12 154.14L151.62 55.86L313.74 168.84C304.668 227.304 278.88 259.28 267.12 267.96C233.52 304.248 179.2 313.88 156.24 314.16Z" fill="#1C76B9"/>
<path d="M182.739 176.774L156.014 150.049L148.591 157.473L175.316 184.198L182.739 176.774Z" fill="#83A3AB"/>
<path d="M184.224 175.289L157.499 148.564L153.045 153.018L179.77 179.743L184.224 175.289Z" fill="#93B7C0"/>
<path d="M230.499 212.68L252.773 252.773C245.404 260.142 233.414 260.143 226.044 252.773L217.135 243.864L230.499 212.68Z" fill="#93B7C0"/>
<path d="M243.863 217.135L252.773 226.044C260.142 233.414 260.142 245.404 252.773 252.773L221.589 221.59L243.863 217.135Z" fill="#ACD5DF"/>
<path d="M217.135 243.863L157.475 184.204L170.839 170.839L209.579 191.76L230.499 230.499L217.135 243.863Z" fill="#3A6FD8"/>
<path d="M243.879 217.121L184.229 157.47L170.866 170.832L230.517 230.483L243.879 217.121Z" fill="#3B88F5"/>
<path d="M63.6189 63.6191L137.345 88.1945L161.921 161.921C134.775 189.066 90.7639 189.066 63.6189 161.921C36.4739 134.775 36.4735 90.7645 63.6189 63.6191V63.6191Z" fill="#93B7C0"/>
<path d="M161.921 63.6191C189.066 90.7645 189.066 134.776 161.921 161.921L63.6189 63.6191C90.7643 36.4737 134.775 36.4737 161.921 63.6191V63.6191Z" fill="#ACD5DF"/>
<path d="M81.4379 81.438L128.436 97.104L144.102 144.102C126.798 161.406 98.7423 161.406 81.4379 144.102C64.1334 126.798 64.1339 98.7424 81.4379 81.438Z" fill="#C4F3FF"/>
<path d="M144.102 81.438C161.406 98.742 161.406 126.798 144.102 144.102L81.4379 81.438C98.7423 64.134 126.797 64.134 144.102 81.438Z" fill="white"/>
<path d="M113.4 90.3C98.8909 90.3 86.5001 99.3563 81.48 112.14C86.5001 124.924 98.8909 133.98 113.4 133.98C127.909 133.98 140.3 124.924 145.32 112.14C140.3 99.3563 127.909 90.3 113.4 90.3ZM113.4 126.7C105.391 126.7 98.8909 120.177 98.8909 112.14C98.8909 104.103 105.391 97.58 113.4 97.58C121.409 97.58 127.909 104.103 127.909 112.14C127.909 120.177 121.409 126.7 113.4 126.7ZM113.4 103.404C108.583 103.404 104.695 107.306 104.695 112.14C104.695 116.974 108.583 120.876 113.4 120.876C118.217 120.876 122.105 116.974 122.105 112.14C122.105 107.306 118.217 103.404 113.4 103.404Z" fill="black"/>
<path d="M401.453 195.961H449.969V207H387.883V104.625H401.453V195.961ZM459.883 168.258C459.883 160.805 461.336 154.102 464.242 148.148C467.195 142.195 471.273 137.602 476.477 134.367C481.727 131.133 487.703 129.516 494.406 129.516C504.766 129.516 513.133 133.102 519.508 140.273C525.93 147.445 529.141 156.984 529.141 168.891V169.805C529.141 177.211 527.711 183.867 524.852 189.773C522.039 195.633 517.984 200.203 512.688 203.484C507.438 206.766 501.391 208.406 494.547 208.406C484.234 208.406 475.867 204.82 469.445 197.648C463.07 190.477 459.883 180.984 459.883 169.172V168.258ZM472.961 169.805C472.961 178.242 474.906 185.016 478.797 190.125C482.734 195.234 487.984 197.789 494.547 197.789C501.156 197.789 506.406 195.211 510.297 190.055C514.188 184.852 516.133 177.586 516.133 168.258C516.133 159.914 514.141 153.164 510.156 148.008C506.219 142.805 500.969 140.203 494.406 140.203C487.984 140.203 482.805 142.758 478.867 147.867C474.93 152.977 472.961 160.289 472.961 169.805ZM575.969 197.789C580.609 197.789 584.664 196.383 588.133 193.57C591.602 190.758 593.523 187.242 593.898 183.023H606.203C605.969 187.383 604.469 191.531 601.703 195.469C598.938 199.406 595.234 202.547 590.594 204.891C586 207.234 581.125 208.406 575.969 208.406C565.609 208.406 557.359 204.961 551.219 198.07C545.125 191.133 542.078 181.664 542.078 169.664V167.484C542.078 160.078 543.438 153.492 546.156 147.727C548.875 141.961 552.766 137.484 557.828 134.297C562.938 131.109 568.961 129.516 575.898 129.516C584.43 129.516 591.508 132.07 597.133 137.18C602.805 142.289 605.828 148.922 606.203 157.078H593.898C593.523 152.156 591.648 148.125 588.273 144.984C584.945 141.797 580.82 140.203 575.898 140.203C569.289 140.203 564.156 142.594 560.5 147.375C556.891 152.109 555.086 158.977 555.086 167.977V170.438C555.086 179.203 556.891 185.953 560.5 190.688C564.109 195.422 569.266 197.789 575.969 197.789ZM667.797 207C667.047 205.5 666.438 202.828 665.969 198.984C659.922 205.266 652.703 208.406 644.312 208.406C636.812 208.406 630.648 206.297 625.82 202.078C621.039 197.812 618.648 192.422 618.648 185.906C618.648 177.984 621.648 171.844 627.648 167.484C633.695 163.078 642.18 160.875 653.102 160.875H665.758V154.898C665.758 150.352 664.398 146.742 661.68 144.07C658.961 141.352 654.953 139.992 649.656 139.992C645.016 139.992 641.125 141.164 637.984 143.508C634.844 145.852 633.273 148.688 633.273 152.016H620.195C620.195 148.219 621.531 144.562 624.203 141.047C626.922 137.484 630.578 134.672 635.172 132.609C639.812 130.547 644.898 129.516 650.43 129.516C659.195 129.516 666.062 131.719 671.031 136.125C676 140.484 678.578 146.508 678.766 154.195V189.211C678.766 196.195 679.656 201.75 681.438 205.875V207H667.797ZM646.211 197.086C650.289 197.086 654.156 196.031 657.812 193.922C661.469 191.812 664.117 189.07 665.758 185.695V170.086H655.562C639.625 170.086 631.656 174.75 631.656 184.078C631.656 188.156 633.016 191.344 635.734 193.641C638.453 195.938 641.945 197.086 646.211 197.086ZM746.125 199.477C741.062 205.43 733.633 208.406 723.836 208.406C715.727 208.406 709.539 206.062 705.273 201.375C701.055 196.641 698.922 189.656 698.875 180.422V130.922H711.883V180.07C711.883 191.602 716.57 197.367 725.945 197.367C735.883 197.367 742.492 193.664 745.773 186.258V130.922H758.781V207H746.406L746.125 199.477ZM775.445 168.328C775.445 156.656 778.211 147.281 783.742 140.203C789.273 133.078 796.516 129.516 805.469 129.516C814.375 129.516 821.43 132.562 826.633 138.656V99H839.641V207H827.688L827.055 198.844C821.852 205.219 814.609 208.406 805.328 208.406C796.516 208.406 789.32 204.797 783.742 197.578C778.211 190.359 775.445 180.938 775.445 169.312V168.328ZM788.453 169.805C788.453 178.43 790.234 185.18 793.797 190.055C797.359 194.93 802.281 197.367 808.562 197.367C816.812 197.367 822.836 193.664 826.633 186.258V151.312C822.742 144.141 816.766 140.555 808.703 140.555C802.328 140.555 797.359 143.016 793.797 147.938C790.234 152.859 788.453 160.148 788.453 169.805ZM874.023 207H861.016V130.922H874.023V207ZM859.961 110.742C859.961 108.633 860.594 106.852 861.859 105.398C863.172 103.945 865.094 103.219 867.625 103.219C870.156 103.219 872.078 103.945 873.391 105.398C874.703 106.852 875.359 108.633 875.359 110.742C875.359 112.852 874.703 114.609 873.391 116.016C872.078 117.422 870.156 118.125 867.625 118.125C865.094 118.125 863.172 117.422 861.859 116.016C860.594 114.609 859.961 112.852 859.961 110.742ZM912.555 112.5V130.922H926.758V140.977H912.555V188.156C912.555 191.203 913.188 193.5 914.453 195.047C915.719 196.547 917.875 197.297 920.922 197.297C922.422 197.297 924.484 197.016 927.109 196.453V207C923.688 207.938 920.359 208.406 917.125 208.406C911.312 208.406 906.93 206.648 903.977 203.133C901.023 199.617 899.547 194.625 899.547 188.156V140.977H885.695V130.922H899.547V112.5H912.555ZM957.555 166.922V207H944.055V104.625H981.812C993.016 104.625 1001.78 107.484 1008.11 113.203C1014.48 118.922 1017.67 126.492 1017.67 135.914C1017.67 145.852 1014.55 153.516 1008.32 158.906C1002.13 164.25 993.25 166.922 981.672 166.922H957.555ZM957.555 155.883H981.812C989.031 155.883 994.562 154.195 998.406 150.82C1002.25 147.398 1004.17 142.477 1004.17 136.055C1004.17 129.961 1002.25 125.086 998.406 121.43C994.562 117.773 989.289 115.875 982.586 115.734H957.555V155.883ZM1069.63 142.594C1067.66 142.266 1065.53 142.102 1063.23 142.102C1054.7 142.102 1048.91 145.734 1045.87 153V207H1032.86V130.922H1045.52L1045.73 139.711C1049.99 132.914 1056.04 129.516 1063.87 129.516C1066.4 129.516 1068.32 129.844 1069.63 130.5V142.594ZM1076.8 168.258C1076.8 160.805 1078.26 154.102 1081.16 148.148C1084.12 142.195 1088.2 137.602 1093.4 134.367C1098.65 131.133 1104.62 129.516 1111.33 129.516C1121.69 129.516 1130.05 133.102 1136.43 140.273C1142.85 147.445 1146.06 156.984 1146.06 168.891V169.805C1146.06 177.211 1144.63 183.867 1141.77 189.773C1138.96 195.633 1134.91 200.203 1129.61 203.484C1124.36 206.766 1118.31 208.406 1111.47 208.406C1101.16 208.406 1092.79 204.82 1086.37 197.648C1079.99 190.477 1076.8 180.984 1076.8 169.172V168.258ZM1089.88 169.805C1089.88 178.242 1091.83 185.016 1095.72 190.125C1099.66 195.234 1104.91 197.789 1111.47 197.789C1118.08 197.789 1123.33 195.211 1127.22 190.055C1131.11 184.852 1133.05 177.586 1133.05 168.258C1133.05 159.914 1131.06 153.164 1127.08 148.008C1123.14 142.805 1117.89 140.203 1111.33 140.203C1104.91 140.203 1099.73 142.758 1095.79 147.867C1091.85 152.977 1089.88 160.289 1089.88 169.805Z" fill="white"/>
</svg>
